HIERARCHY
ROOT Hips
{
	OFFSET 0.000000 1.471914 24.280096
	CHANNELS 6 Xposition Yposition Zposition Xrotation Yrotation Zrotation
	JOINT Spine
	{
		OFFSET 0.000000 0.900110 1.860670
		CHANNELS 6 Xposition Yposition Zposition Xrotation Yrotation Zrotation
		JOINT Spine1
		{
			OFFSET 0.000000 0.400320 2.270309
			CHANNELS 6 Xposition Yposition Zposition Xrotation Yrotation Zrotation
			JOINT Spine2
			{
				OFFSET 0.000000 0.200920 2.296560
				CHANNELS 6 Xposition Yposition Zposition Xrotation Yrotation Zrotation
				JOINT Spine3
				{
					OFFSET 0.000000 0.000000 2.305330
					CHANNELS 6 Xposition Yposition Zposition Xrotation Yrotation Zrotation
					JOINT Neck
					{
						OFFSET 0.000000 -0.864490 6.051487
						CHANNELS 6 Xposition Yposition Zposition Xrotation Yrotation Zrotation
						JOINT Head
						{
							OFFSET 0.000000 -0.550429 3.121674
							CHANNELS 6 Xposition Yposition Zposition Xrotation Yrotation Zrotation
							End Site
							{
								OFFSET 0.000000 0.000000 3.731750
							}
						}
					}
					JOINT RightShoulder
					{
						OFFSET -0.788280 -1.313800 4.256718
						CHANNELS 6 Xposition Yposition Zposition Xrotation Yrotation Zrotation
						JOINT RightArm
						{
							OFFSET -3.915130 0.000000 0.000000
							CHANNELS 6 Xposition Yposition Zposition Xrotation Yrotation Zrotation
							JOINT RightForeArm
							{
								OFFSET -6.914910 0.000000 0.000000
								CHANNELS 6 Xposition Yposition Zposition Xrotation Yrotation Zrotation
								JOINT RightHand
								{
									OFFSET -6.096219 0.000000 0.000000
									CHANNELS 6 Xposition Yposition Zposition Xrotation Yrotation Zrotation
									JOINT RightHandEnd
									{
										OFFSET -1.749950 0.000000 0.000000
										CHANNELS 6 Xposition Yposition Zposition Xrotation Yrotation Zrotation
										End Site
										{
											OFFSET -1.749950 0.000000 0.000000
										}
									}
									JOINT RightHandThumb1
									{
										OFFSET -0.699980 -1.166630 -0.466648
										CHANNELS 6 Xposition Yposition Zposition Xrotation Yrotation Zrotation
										End Site
										{
											OFFSET -1.690319 -0.452920 0.000000
										}
									}
								}
							}
						}
					}
					JOINT LeftShoulder
					{
						OFFSET 0.788280 -1.313800 4.256718
						CHANNELS 6 Xposition Yposition Zposition Xrotation Yrotation Zrotation
						JOINT LeftArm
						{
							OFFSET 3.915130 0.000000 0.000000
							CHANNELS 6 Xposition Yposition Zposition Xrotation Yrotation Zrotation
							JOINT LeftForeArm
							{
								OFFSET 6.914910 0.000000 0.000000
								CHANNELS 6 Xposition Yposition Zposition Xrotation Yrotation Zrotation
								JOINT LeftHand
								{
									OFFSET 6.096219 0.000000 0.000000
									CHANNELS 6 Xposition Yposition Zposition Xrotation Yrotation Zrotation
									JOINT LeftHandEnd
									{
										OFFSET 1.749950 0.000000 0.000000
										CHANNELS 6 Xposition Yposition Zposition Xrotation Yrotation Zrotation
										End Site
										{
											OFFSET 1.749950 0.000000 0.000000
										}
									}
									JOINT LeftHandThumb1
									{
										OFFSET 0.699980 -1.166630 -0.466648
										CHANNELS 6 Xposition Yposition Zposition Xrotation Yrotation Zrotation
										End Site
										{
											OFFSET 1.690319 -0.452920 0.000000
										}
									}
								}
							}
						}
					}
				}
			}
		}
	}
	JOINT RightUpLeg
	{
		OFFSET -2.338570 -0.252550 -0.551512
		CHANNELS 6 Xposition Yposition Zposition Xrotation Yrotation Zrotation
		JOINT RightLeg
		{
			OFFSET 0.000000 0.000000 -10.744959
			CHANNELS 6 Xposition Yposition Zposition Xrotation Yrotation Zrotation
			JOINT RightFoot
			{
				OFFSET 0.000000 -0.000001 -10.930849
				CHANNELS 6 Xposition Yposition Zposition Xrotation Yrotation Zrotation
				JOINT RightToeBase
				{
					OFFSET 0.000000 -4.087269 -1.487650
					CHANNELS 6 Xposition Yposition Zposition Xrotation Yrotation Zrotation
					End Site
					{
						OFFSET 0.000000 -1.891870 0.000000
					}
				}
			}
		}
	}
	JOINT LeftUpLeg
	{
		OFFSET 2.338570 -0.252550 -0.551512
		CHANNELS 6 Xposition Yposition Zposition Xrotation Yrotation Zrotation
		JOINT LeftLeg
		{
			OFFSET 0.000000 0.000000 -10.744959
			CHANNELS 6 Xposition Yposition Zposition Xrotation Yrotation Zrotation
			JOINT LeftFoot
			{
				OFFSET 0.000000 -0.000001 -10.930849
				CHANNELS 6 Xposition Yposition Zposition Xrotation Yrotation Zrotation
				JOINT LeftToeBase
				{
					OFFSET 0.000000 -4.087269 -1.487650
					CHANNELS 6 Xposition Yposition Zposition Xrotation Yrotation Zrotation
					End Site
					{
						OFFSET 0.000000 -1.891870 0.000000
					}
				}
			}
		}
	}
}
MOTION
Frames: 4
Frame Time: 0.041667
0.000010 27.324999 34.199303 -10.853235 -0.286723 -15.370540 -0.000023 0.900112 1.860687 26.023796 0.689333 -1.383673 0.000012 0.400267 2.270333 -0.000006 -0.000002 0.000009 0.000015 0.200887 2.296530 0.000003 -0.000001 0.000000 0.000026 0.000008 2.305338 -0.000026 0.000005 -3.109072 -0.000012 -0.864465 6.051444 -7.133875 1.606243 177.191185 0.000010 -0.550434 3.121700 -0.000003 0.000001 -0.000001 -0.788271 -1.313731 4.256803 -144.384708 57.748047 -51.547649 -3.915087 -0.000017 -0.000027 -0.000001 -0.000001 0.000001 -6.914908 -0.000010 0.000004 -0.000014 -0.000001 -98.705441 -6.096197 -0.000006 0.000021 -0.000012 0.000102 -0.000063 -1.749901 -0.000042 0.000031 0.000001 -0.000000 0.000000 -0.699957 -1.166646 -0.466656 -0.000000 -0.000007 0.000002 0.788255 -1.313774 4.256740 -151.985083 -63.203654 47.488922 3.915163 0.000003 -0.000027 0.000002 0.000003 0.000004 6.914934 -0.000042 0.000000 0.000007 0.000002 91.486928 6.096219 0.000084 -0.000030 0.000089 -0.000102 -0.000020 1.749976 0.000010 0.000031 -0.000006 -0.000011 0.000000 0.699959 -1.166618 -0.466637 0.000004 -0.000006 -0.000019 -2.338565 -0.252533 -0.551481 -46.021528 6.600387 2.265531 0.000014 -0.000024 -10.744967 78.275286 -2.337988 4.324823 -0.000020 0.000084 -10.930832 0.000017 -0.000004 -0.000006 0.000008 -4.087267 -1.487637 0.000005 0.000001 -0.000002 2.338575 -0.252541 -0.551457 -46.960395 2.856800 2.313532 -0.000002 -0.000036 -10.744901 76.615714 -0.299711 0.675305 -0.000011 0.000012 -10.930871 0.000024 -0.000001 -0.000001 -0.000014 -4.087237 -1.487653 0.000000 0.000001 -0.000002 
0.000008 27.325003 34.199303 -10.782699 -0.317146 -15.358485 -0.000023 0.900112 1.860693 25.885264 0.612188 -1.395856 0.000012 0.400268 2.270319 -0.000001 -0.000001 0.000008 0.000016 0.200882 2.296526 0.000000 -0.000001 0.000001 0.000026 0.000011 2.305338 -0.000022 0.000005 -3.161564 -0.000012 -0.864465 6.051442 -7.225277 1.665237 177.290387 0.000010 -0.550435 3.121689 -0.000002 0.000001 -0.000005 -0.788274 -1.313728 4.256803 -144.323004 58.139342 -51.786597 -3.915083 -0.000024 -0.000034 0.000000 0.000002 0.000001 -6.914919 -0.000015 0.000008 -0.000014 -0.000002 -98.683905 -6.096190 -0.000007 0.000010 -0.000009 0.000102 -0.000062 -1.749902 -0.000038 0.000031 -0.000002 0.000001 0.000001 -0.699957 -1.166636 -0.466656 -0.000000 -0.000006 0.000004 0.788255 -1.313772 4.256746 -151.692764 -63.398028 47.987717 3.915165 0.000004 -0.000031 0.000000 0.000000 0.000005 6.914931 -0.000037 0.000000 0.000003 0.000002 92.852385 6.096216 0.000088 -0.000028 0.000091 -0.000099 -0.000017 1.749972 0.000010 0.000031 -0.000005 -0.000006 -0.000000 0.699955 -1.166613 -0.466634 0.000006 -0.000005 -0.000020 -2.338567 -0.252535 -0.551482 -46.083638 6.554571 2.299060 0.000014 -0.000023 -10.744968 78.184800 -2.216215 4.251274 -0.000019 0.000083 -10.930834 0.000019 -0.000004 -0.000005 0.000007 -4.087266 -1.487640 0.000004 0.000002 -0.000001 2.338574 -0.252537 -0.551459 -47.092116 2.992704 2.350179 0.000001 -0.000034 -10.744905 76.630618 -0.495412 0.783828 -0.000011 0.000010 -10.930875 0.000022 -0.000003 -0.000001 -0.000014 -4.087239 -1.487651 0.000001 0.000002 -0.000003 
0.000007 27.325006 34.199303 -10.694195 -0.302969 -15.220590 -0.000022 0.900109 1.860691 25.831688 0.424896 -1.383988 0.000013 0.400270 2.270321 -0.000004 -0.000001 0.000010 0.000013 0.200884 2.296524 -0.000001 -0.000001 0.000003 0.000026 0.000012 2.305338 -0.000026 0.000003 -3.254527 -0.000011 -0.864471 6.051441 -7.401955 1.738139 177.276631 0.000011 -0.550438 3.121693 -0.000005 0.000000 -0.000000 -0.788270 -1.313733 4.256795 -144.510178 58.219986 -51.666102 -3.915087 -0.000025 -0.000031 -0.000000 -0.000001 0.000001 -6.914907 -0.000013 0.000008 -0.000014 -0.000001 -98.924007 -6.096192 -0.000004 0.000021 -0.000009 0.000102 -0.000064 -1.749903 -0.000039 0.000031 -0.000003 -0.000000 0.000002 -0.699958 -1.166641 -0.466656 -0.000003 -0.000008 0.000005 0.788260 -1.313781 4.256743 -151.408779 -63.304072 48.568758 3.915170 0.000006 -0.000027 0.000001 -0.000003 0.000004 6.914933 -0.000039 0.000008 -0.000003 0.000004 94.094694 6.096219 0.000091 -0.000027 0.000096 -0.000101 -0.000020 1.749972 0.000014 0.000037 -0.000001 -0.000007 -0.000004 0.699955 -1.166614 -0.466636 0.000009 -0.000001 -0.000023 -2.338565 -0.252538 -0.551482 -46.173011 6.643350 2.287387 0.000014 -0.000024 -10.744961 78.134147 -2.342167 4.355600 -0.000020 0.000080 -10.930833 0.000015 -0.000004 -0.000003 0.000006 -4.087267 -1.487638 0.000003 0.000003 -0.000001 2.338575 -0.252543 -0.551449 -47.252109 3.063365 2.340524 -0.000000 -0.000033 -10.744899 76.920259 -0.499913 0.874125 -0.000011 0.000012 -10.930874 0.000029 0.000000 -0.000001 -0.000014 -4.087238 -1.487652 -0.000001 0.000002 0.000000 
0.000007 27.325003 34.199295 -10.728522 -0.367317 -15.102790 -0.000023 0.900110 1.860685 25.920745 0.404756 -1.412736 0.000013 0.400271 2.270329 -0.000003 -0.000001 0.000009 0.000014 0.200888 2.296530 0.000001 -0.000000 0.000002 0.000026 0.000008 2.305338 -0.000024 0.000005 -3.232873 -0.000010 -0.864465 6.051437 -7.610585 1.644594 177.199231 0.000012 -0.550437 3.121693 -0.000005 0.000000 -0.000004 -0.788270 -1.313730 4.256799 -144.653831 58.267019 -51.697210 -3.915087 -0.000020 -0.000027 0.000000 -0.000001 0.000001 -6.914910 -0.000010 0.000008 -0.000015 -0.000002 -99.063875 -6.096193 -0.000001 0.000017 -0.000008 0.000102 -0.000061 -1.749903 -0.000034 0.000034 -0.000002 0.000002 0.000000 -0.699958 -1.166638 -0.466656 -0.000003 -0.000005 0.000003 0.788258 -1.313772 4.256741 -151.554002 -63.267626 48.743163 3.915166 0.000006 -0.000027 0.000003 -0.000001 0.000004 6.914935 -0.000040 0.000003 0.000000 0.000005 94.623972 6.096214 0.000098 -0.000026 0.000091 -0.000105 -0.000020 1.749971 0.000014 0.000033 -0.000004 -0.000006 0.000000 0.699955 -1.166614 -0.466636 0.000009 -0.000005 -0.000018 -2.338566 -0.252538 -0.551486 -46.211790 6.752064 2.329328 0.000013 -0.000025 -10.744964 78.255171 -2.414356 4.427742 -0.000020 0.000083 -10.930835 0.000017 -0.000004 -0.000004 0.000006 -4.087265 -1.487637 -0.000001 0.000002 -0.000001 2.338575 -0.252541 -0.551459 -47.438550 3.194943 2.388372 -0.000001 -0.000035 -10.744903 77.210979 -0.610535 0.974183 -0.000010 0.000011 -10.930871 0.000026 -0.000002 -0.000001 -0.000014 -4.087234 -1.487650 -0.000002 0.000001 -0.000003 
